<svg id="role_explorers" xmlns="http://www.w3.org/2000/svg" viewBox="0 0 130 130"><defs><style>.cls-1{fill:#f3d65d;}.cls-2{fill:#f8edd7;}.cls-3{fill:#7d5f1f;}.cls-4{fill:#72561c;}.cls-5{fill:#947124;}.cls-6{fill:#b58a2d;}.cls-7{fill:#e4b44f;}.cls-8{fill:#c19331;}.cls-9{fill:#cbad2e;}.cls-10{fill:#886922;}</style></defs><polyline class="cls-1" points="27.71 19.21 64.52 3.9 102.31 20.36 88.74 111.85 65 123.19 41.18 111 27.71 19.21"/><polygon class="cls-2" points="48.47 118.07 65 123.19 81.54 118.06 72.64 10.11 65 5.96 57.38 10.11 48.47 118.07"/><polygon class="cls-2" points="33.95 59.22 44.7 12.19 28.33 21.53 33.95 59.22"/><polygon class="cls-2" points="96.04 59.22 85.3 12.19 101.66 21.53 96.04 59.22"/><polygon class="cls-3" points="66.66 4.18 27.71 19.21 30.02 24.42 65 10.16 66.66 4.18"/><polygon class="cls-4" points="65 5.96 102.31 20.36 100 24.42 65 10.16 65 5.96"/><polygon class="cls-3" points="38.6 117.43 65 129.5 68.67 123.03 57.06 118.39 39.25 109.73 38.6 117.43"/><polygon class="cls-5" points="24.5 17.16 22.83 23.7 38.6 117.43 39.7 112.14 39.7 100.4 28.33 21.53 24.5 17.16"/><polygon class="cls-6" points="24.5 17.16 39.7 112.14 42.45 111.63 42.89 109.73 31.36 21.53 30.11 18.72 24.5 17.16"/><polygon class="cls-7" points="42.89 109.73 65.01 118.07 66.9 121.17 65 125.12 39.7 112.14 42.89 109.73"/><polygon class="cls-7" points="65 5.96 31.36 21.53 24.5 17.16 65 0.5 66.11 3.7 65 5.96"/><polygon class="cls-4" points="91.41 117.43 65 129.5 65.01 125.12 72.95 118.39 90.75 109.73 91.41 117.43"/><polygon class="cls-5" points="105.51 17.16 107.17 23.7 91.41 117.43 90.3 112.14 90.3 100.4 101.67 21.53 105.51 17.16"/><polygon class="cls-7" points="105.51 17.16 90.3 112.14 87.56 111.63 87.12 109.73 98.64 21.53 99.89 18.72 105.51 17.16"/><polygon class="cls-6" points="87.12 109.73 65.01 118.07 65.01 125.12 90.3 112.14 87.12 109.73"/><polygon class="cls-6" points="65 5.96 98.64 21.53 105.51 17.16 65 0.5 65 5.96"/><polygon class="cls-5" points="90.42 47.96 54.67 108.32 73 61.92 90.42 47.96"/><polygon class="cls-8" points="63.94 65.54 69.34 62.74 73.83 64.54 54.67 108.32 63.94 65.54"/><polygon class="cls-9" points="61.87 55.4 90.42 47.96 73.83 64.54 63.94 65.54 61.87 55.4"/><polygon class="cls-9" points="67.77 18.94 49.84 23.5 47.28 67.25 59.31 60.13 67.77 18.94"/><polygon class="cls-5" points="67.77 18.94 81.47 30.87 63.94 65.54 57.82 61.91 58.35 56.27 67.77 18.94"/><polygon class="cls-3" points="47.28 67.25 58.35 56.27 63.94 65.54 47.28 67.25"/><polygon class="cls-5" points="42.87 80.43 39.93 87.06 29.01 98 25.53 88.59 42.87 80.43"/><polygon class="cls-5" points="7.08 71.38 6.12 76.96 9.53 89.84 16.66 85.61 7.08 71.38"/><polygon class="cls-4" points="28.59 92.33 20.9 85.97 10.41 85.09 9.53 89.84 29.01 98 28.59 92.33"/><polygon class="cls-2" points="9.57 72.04 20.82 59.76 38.07 65.9 39.83 79.93 28.72 89.87 12.64 83.3 9.57 72.04"/><polygon class="cls-5" points="34.65 68.11 37.63 81.44 41.04 79.59 37.81 64.58 34.59 64.9 34.65 68.11"/><polygon class="cls-5" points="23.34 60.37 20.68 64.49 10.84 75.31 10.25 71.99 18.41 61.34 23.34 60.37"/><polygon class="cls-4" points="20.68 64.49 34.65 68.11 36.19 66.69 20.95 61.68 20.68 64.49"/><path class="cls-9" d="M40.16,64.07,19.83,57.16,7.08,71.38l3.33,13.71,18.18,7.24,14.28-11.9ZM28,87.87,14.06,82.62,11.31,72.7l9.64-11,15.24,5,2.12,12.79Z"/><polygon class="cls-6" points="24.69 80.51 26 80.1 24.29 71.55 22.18 72.06 24.69 80.51"/><polygon class="cls-6" points="20.69 73.33 26.13 71.62 22.11 68.16 20.69 73.33"/><polygon class="cls-10" points="26.94 82.14 26.88 75.87 29.09 73.28 30.6 74.69 28.66 76.6 28.09 82.42 26.94 82.14"/><polygon class="cls-10" points="27.25 72.78 31.36 76.48 32.28 71.23 27.25 72.78"/><polygon class="cls-10" points="25 82.93 22.21 77.67 18.7 76.26 18.09 78.41 21.03 79.19 24.18 83.69 25 82.93"/><polygon class="cls-10" points="20.23 75.08 18.34 80.1 15.56 75.9 20.23 75.08"/><polygon class="cls-3" points="104.75 91.73 101.24 97.93 89.68 90.52 90.59 81.48 104.75 91.73"/><polygon class="cls-5" points="115.56 58.19 119.13 62.8 117.11 67.15 111.05 62.13 115.56 58.19"/><polygon class="cls-8" points="107.56 61.5 110.03 58.12 115.56 58.19 113.71 61.16 107.56 61.5"/><polygon class="cls-2" points="99.56 64.43 111.56 64.42 117.62 74.69 111.56 85.85 103.83 87.74 94.14 82.15 93.48 73.2 99.56 64.43"/><polygon class="cls-5" points="122.7 74.4 122.86 80.74 115.09 94.49 112.09 88.36 122.7 74.4"/><polygon class="cls-5" points="88.29 72.85 87.03 77.9 89.68 90.52 90.88 84.68 92.27 79.32 88.29 72.85"/><polygon class="cls-5" points="100.83 67.99 95.1 77.16 94.56 72.64 98.88 65.83 101.85 64.55 100.83 67.99"/><polygon class="cls-4" points="110.14 68.6 100.83 67.99 100.63 66.51 108.66 64.82 111.22 66.44 110.14 68.6"/><polygon class="cls-5" points="115.4 76.08 110.14 68.6 110.48 66.51 112.5 65.77 117.62 74.69 115.4 76.08"/><polygon class="cls-5" points="104.06 75.3 102.53 80.41 106.56 76.98 105.53 75.49 104.06 75.3"/><polygon class="cls-9" points="108.12 71.55 104.06 75.3 106.56 76.98 108.12 71.55"/><polygon class="cls-8" points="107.94 70.39 108.7 68.97 109.31 70.31 109.92 69.56 110.22 69.78 109.26 71.27 108.7 69.91 108.27 70.57 107.94 70.39"/><polygon class="cls-8" points="111.94 79.25 110.78 78.51 109.78 80.19 111 81.04 111.31 80.56 110.41 80.02 110.91 79.16 111.68 79.69 111.94 79.25"/><polygon class="cls-8" points="110.61 79.38 111.2 79.69 110.96 80.04 110.41 79.62 110.61 79.38"/><polygon class="cls-8" points="99.48 72.24 98.64 73.66 99.09 73.99 99.76 73.43 99.55 74.29 100.02 74.61 101.05 73.15 100.67 72.91 100.11 73.77 100.02 72.84 99.38 73.28 99.83 72.37 99.48 72.24"/><polygon class="cls-8" points="102.88 81.94 102.3 80.99 101.16 81.33 101.69 82.51 101.53 82.66 100.89 82.16 100.56 82.46 101.32 83.26 102.22 82.82 101.82 81.66 102.12 81.57 102.53 82.19 102.88 81.94"/><polygon class="cls-4" points="102.86 92.57 108.93 88.62 115.29 89.01 115.09 94.49 101.24 97.93 102.86 92.57"/><path class="cls-9" d="M113.71,61.15l-15-1.1L88.16,72.85l2.72,11.83,12,7.89L115.29,89,122.7,74.4ZM110.49,84.1l-6.35,1.56-8-4.59-.54-7.35,5-7.21h9.85l5,8.43Z"/></svg>
