<svg id="strategy_constant_improvement_explorers" xmlns="http://www.w3.org/2000/svg" viewBox="0 0 130 130"><defs><style>.cls-1{fill:#fdfaf4;}.cls-2{fill:#ecc675;}.cls-3{fill:#f1d69c;}.cls-4{fill:#f6e6c4;}.cls-5{fill:#e4ae3a;}.cls-6{fill:#e6b64e;}.cls-7{fill:#cc9c34;}.cls-14,.cls-8{opacity:0.2;}.cls-14,.cls-9{fill:#1d2432;}.cls-10{fill:#68707f;}.cls-11{fill:#89909b;}.cls-12{fill:#545c6d;}.cls-13{fill:#787f8d;}.cls-15{fill:#cccfd4;}.cls-16{fill:#454d5d;}.cls-17{fill:#886822;}.cls-18{fill:#51596a;}.cls-19{fill:#9a9fa9;}.cls-20{fill:#8d7c2f;}.cls-21{fill:#f4d75c;}.cls-22{fill:#ccae2d;}.cls-23{fill:#b38c2e;}.cls-24{fill:#7d5f1f;}.cls-25{fill:#947125;}.cls-26{fill:#ac923b;}.cls-27{fill:#71561c;}.cls-28{fill:#7f6d21;}.cls-29{fill:#9f7928;}</style></defs><polygon class="cls-1" points="31.76 37.41 35.15 25.53 62.84 14.9 85.66 18.25 92.08 34.65 94.23 67.15 94.4 120.32 39.23 120.32 35.15 109.41 33.17 80.3 31.76 37.41"/><polygon class="cls-2" points="81.96 47.18 81.91 43.88 82.25 43.5 81.9 43.18 81.87 41.12 91.77 39.46 92.6 46.79 81.96 47.18"/><polygon class="cls-3" points="81.91 43.88 91.86 42.39 91.92 41.74 81.9 43.18 81.91 43.88"/><polygon class="cls-3" points="39.83 36.06 48.35 37.99 54.83 89.29 36.79 87.11 39.83 36.06"/><polygon class="cls-4" points="31.8 37.93 39.83 36.06 41.78 86.41 32.95 76.18 31.8 37.93"/><polygon class="cls-4" points="92.69 44.26 72.73 47.18 72.47 52.98 73.13 54.93 72.28 57.41 72.18 59.58 72.62 61.51 72 63.86 70.72 93.01 94.8 90.51 94.23 67.15 92.69 44.26"/><polygon class="cls-5" points="36.13 41.15 37.85 40.62 37.97 42.98 36.19 43.45 36.13 41.15"/><polygon class="cls-5" points="36.25 47.18 37.91 46.76 38.02 49.13 36.31 49.54 36.25 47.18"/><polygon class="cls-5" points="36.31 53.14 38.08 52.79 38.2 55.15 36.31 55.45 36.31 53.14"/><polygon class="cls-5" points="36.55 59.39 38.23 59.16 38.44 61.34 36.61 61.52 36.55 59.39"/><polygon class="cls-5" points="36.72 65.27 38.4 65.04 38.53 67.22 36.72 67.4 36.72 65.27"/><polygon class="cls-5" points="45.31 43.16 47.01 43.47 46.78 41.49 45.13 41.17 45.31 43.16"/><polygon class="cls-5" points="44.06 40.96 42.43 40.65 42.53 42.67 44.28 42.98 44.06 40.96"/><polygon class="cls-5" points="44.43 47.32 42.77 46.99 42.91 49.06 44.63 49.36 44.43 47.32"/><polygon class="cls-5" points="45.84 49.57 47.49 49.86 47.18 47.86 45.6 47.55 45.84 49.57"/><polygon class="cls-5" points="46.36 55.47 47.89 55.69 47.58 53.6 46.12 53.39 46.36 55.47"/><polygon class="cls-5" points="44.84 53.21 43.19 52.98 43.24 55.02 44.98 55.27 44.84 53.21"/><polygon class="cls-5" points="46.92 61.3 48.56 61.43 48.29 59.58 46.75 59.38 46.92 61.3"/><polygon class="cls-5" points="45.04 59.16 43.55 58.97 43.65 61.04 45.21 61.16 45.04 59.16"/><polygon class="cls-5" points="83.06 62.92 88.07 62.5 88.05 57.97 83.11 58.47 83.06 62.92"/><polygon class="cls-5" points="83.2 51.56 83.14 56.26 88.03 55.75 88 50.92 83.2 51.56"/><polygon class="cls-5" points="89.15 57.85 89.19 62.41 93.81 62.01 93.7 59.33 93.58 57.41 89.15 57.85"/><polygon class="cls-5" points="89.13 55.63 93.43 55.18 93.1 50.24 89.09 50.77 89.13 55.63"/><polygon class="cls-5" points="76.46 52.45 72.47 52.98 72.28 57.41 76.38 56.97 76.46 52.45"/><polygon class="cls-5" points="76.26 63.5 76.34 59.16 72.18 59.58 72 63.86 76.26 63.5"/><polygon class="cls-5" points="82.19 51.69 77.52 52.31 77.44 56.86 82.11 56.37 82.19 51.69"/><polygon class="cls-5" points="77.33 63.41 82 63.02 82.08 58.58 77.41 59.05 77.33 63.41"/><polygon class="cls-2" points="32.95 76.18 38.76 73.33 47.33 79.63 52.96 82.96 58.58 76.21 73.01 82.65 79.23 78.14 87.7 79.03 93.69 82.96 94.96 105.65 34.85 105 33.17 80.3 32.95 76.18"/><polygon class="cls-6" points="34.13 86.65 40.27 81.77 47.5 86.41 52.96 82.96 64.42 89.4 72.73 85.89 79.82 88.31 93.69 82.96 94.96 105.65 34.78 103.94 34.13 86.65"/><polygon class="cls-2" points="79.82 88.31 72.25 91.26 81.96 95.61 79.82 88.31"/><polygon class="cls-2" points="47.5 86.41 54.48 88.13 44.23 93.01 47.5 86.41"/><polygon class="cls-7" points="44.23 93.01 57.68 99.06 34.13 104.13 34.13 91.36 44.23 93.01"/><polygon class="cls-7" points="81.96 95.61 71.54 99.31 80.63 102.47 81.96 95.61"/><polygon class="cls-7" points="94.54 92.47 81.96 95.61 92.08 104.69 94.54 92.47"/><polygon class="cls-7" points="94.8 89.4 81.96 95.61 79.82 88.31 93.69 82.96 94.8 89.4"/><polygon class="cls-2" points="81.96 95.61 94.4 87.11 94.29 93.71 81.96 95.61"/><polygon class="cls-3" points="35.93 98.5 93.03 99.98 93.69 116.67 39.23 120.32 35.15 104.88 35.93 98.5"/><g class="cls-8"><polygon class="cls-9" points="84.32 103.02 93.11 101.97 93.03 99.98 84.9 99.77 84.32 103.02"/><polygon class="cls-9" points="62.84 99.2 50.16 98.87 43.28 100.69 45.28 102.47 62.84 99.2"/></g><polygon class="cls-10" points="84.32 103.02 86.93 101.87 87.76 76.78 86.65 72.36 83.95 72.47 84.32 103.02"/><polygon class="cls-11" points="78.97 73.63 80.59 102.9 84.32 103.02 84.94 72.24 78.97 73.63"/><polygon class="cls-12" points="84.94 74.15 87.76 76.78 87.98 72.31 84.94 74.15"/><polygon class="cls-10" points="45.28 102.47 47.89 101.36 47.33 79.63 46.46 75.31 43.86 74.74 45.28 102.47"/><polygon class="cls-11" points="39.83 75.47 41.69 102.44 45.28 102.47 44.82 75.47 39.83 75.47"/><polygon class="cls-12" points="44.84 76.71 47.33 79.63 47.22 75.47 44.84 76.71"/><polygon class="cls-13" points="33.58 69.04 94.19 64.33 94.23 67.15 94.3 68.68 94.32 69.79 48.51 73.97 32.95 73.74 33.58 69.04"/><polygon class="cls-10" points="32.95 73.74 33.28 77.44 93.69 73.6 94.4 69.44 32.95 73.74"/><polygon class="cls-14" points="42.97 107.89 64.82 102.99 87.65 107.42 63.37 112.44 42.97 107.89"/><polygon class="cls-15" points="98.51 16.4 85.66 18.25 94.23 67.15 98.51 16.4"/><polygon class="cls-15" points="25.11 26.98 33.17 80.3 35.15 25.53 25.11 26.98"/><polygon class="cls-15" points="82.82 2.04 35.35 20.1 35.15 25.53 85.66 18.25 82.82 2.04"/><polygon class="cls-15" points="104.89 127.96 94.23 67.15 90.17 115.28 39.23 120.32 33.17 80.3 31.76 119.45 104.89 127.96"/><polygon class="cls-16" points="58.47 101.63 53.18 105.65 65.03 106.28 64.08 104.13 62.19 101.84 58.47 101.63"/><polygon class="cls-17" points="63.91 107.42 53.18 107.42 53.18 105.65 64.6 105.65 63.91 107.42"/><polygon class="cls-16" points="75.99 50.34 81.86 65.28 73.42 68.55 75.99 50.34"/><polygon class="cls-18" points="81.86 65.28 74.56 65.81 71.74 70.28 71.74 73.74 79.8 72.35 81.86 65.28"/><polygon class="cls-19" points="64.8 8.9 73.23 10.11 81.13 15.47 70.72 18.66 64.8 8.9"/><polygon class="cls-20" points="52.96 82.96 59.95 99.42 64.08 104.13 68.43 103.67 71.36 101.36 72.73 85.89 59.01 74.68 52.96 82.96"/><polygon class="cls-18" points="55.19 22.67 49.13 29.57 52.68 34.65 55.19 22.67"/><polygon class="cls-18" points="67.75 28.74 77.85 43.38 78.51 29.7 74.61 28.74 67.75 28.74"/><polygon class="cls-16" points="70.72 29.96 77.85 43.38 69.42 44.86 67.39 35.93 70.72 29.96"/><polygon class="cls-21" points="55.19 22.67 50.52 37.63 57.42 40.64 60.9 43.36 63.67 43.38 70.72 29.96 55.19 22.67"/><polygon class="cls-22" points="70.72 29.96 63.67 43.38 59.47 46.12 56.28 48.42 62.96 50.46 69.09 48.58 70.72 29.96"/><polygon class="cls-23" points="67.39 45.01 57.42 40.64 59.47 46.12 61.94 47.18 67.39 45.01"/><polygon class="cls-21" points="69.09 48.58 59.47 46.12 52.24 48.34 62.34 53.88 69.09 48.58"/><polygon class="cls-23" points="65.87 31.06 56.95 26.98 59.43 29.55 58.29 35.93 61.94 30.69 61.94 30.69 65.87 31.06"/><polygon class="cls-24" points="52.24 48.34 61.24 61.65 72.42 49.43 69.09 48.58 62.41 51.74 52.24 48.34"/><polygon class="cls-7" points="52.24 48.34 61.18 58.12 62.41 65.64 59.65 79.03 50.66 74.98 52.24 48.34"/><polygon class="cls-25" points="72.42 49.43 61.18 58.12 58.29 74.74 64.97 78.08 73.42 78.08 75.99 50.34 72.42 49.43"/><polygon class="cls-19" points="48.88 14.95 55.19 22.67 70.72 29.96 87.61 29.4 79.8 22.31 71.24 14.8 60.95 14.9 48.88 14.95"/><polygon class="cls-10" points="60.95 14.9 67.39 25.4 71.74 18.66 71.24 14.8 64.8 8.9 60.95 14.9"/><polygon class="cls-12" points="67.39 25.4 79.8 22.31 81.13 15.47 71.24 14.8 67.39 25.4"/><polygon class="cls-26" points="58.47 18.31 67.39 25.4 69.12 24.34 68.5 22.34 60.95 14.9 58.47 18.31"/><polygon class="cls-20" points="67.39 25.4 79 26.38 79.8 22.31 68.5 22.34 67.39 25.4"/><polygon class="cls-24" points="50.66 74.98 52.96 82.96 61.07 85.89 63.91 79.35 58.29 74.74 50.66 74.98"/><polygon class="cls-27" points="58.29 74.74 60.12 84.02 64.62 86.41 72.73 85.89 73.42 78.08 58.29 74.74"/><polygon class="cls-28" points="54.48 88.13 58.03 85.55 62.41 95.61 64.08 104.13 58.47 101.63 54.48 88.13"/><polygon class="cls-26" points="72.73 85.89 62.41 95.61 59.65 89.29 60.12 84.02 72.73 85.89"/><polygon class="cls-20" points="52.96 82.96 54.48 88.13 62.41 95.61 60.12 84.02 52.96 82.96"/><polygon class="cls-12" points="52.24 48.34 44.82 62.81 52.18 67.66 52.24 48.34"/><path class="cls-4" d="M68.39,60.08l-7.58-3.14-7.58,3.14-3.14,7.58.83,2.87,2.31,4.72,7.58,3.14,7.58-3.14,3.14-7.59ZM63.63,72.55H58l-2.83-4.89L58,62.77h5.64l2.83,4.89Z"/><polygon class="cls-4" points="60.81 59.03 63.88 60.3 62.87 55.45 58.75 55.45 57.74 60.3 60.81 59.03"/><polygon class="cls-4" points="73.11 66.07 68.21 64.68 70.96 60.5 68.05 57.59 63.91 60.32 66.92 61.56 69.44 67.66 66.92 73.77 60.81 76.3 54.7 73.77 52.18 67.66 54.7 61.56 57.72 60.31 53.57 57.59 50.66 60.5 53.39 64.67 48.51 65.68 48.51 69.8 53.39 71.28 50.66 74.98 53.57 77.89 57.75 75.16 58.75 80.04 62.87 80.04 63.88 75.14 68.05 77.89 70.96 74.98 69.62 72.28 73.11 69.8 73.11 66.07"/><polygon class="cls-21" points="44.82 62.81 49.62 64.18 49.62 67.22 47.22 71.63 43.82 68.25 44.82 62.81"/><polygon class="cls-22" points="49.62 64.18 52.7 66.39 50.92 70.53 47.22 71.63 49.62 64.18"/><polygon class="cls-22" points="74.56 65.81 72.73 68.71 73.72 74.87 79.8 72.35 79.27 68.17 74.56 65.81"/><polygon class="cls-21" points="74.56 65.81 68.88 66.82 68.52 71.63 73.72 74.87 74.56 65.81"/><polygon class="cls-12" points="64.08 104.13 63.91 107.42 69.24 108.01 74.58 107.42 71.36 101.36 64.08 104.13"/><rect class="cls-29" x="63.91" y="107.42" width="10.67" height="1.66"/></svg>
